<?xml version="1.0" standalone="no"?><!DOCTYPE svg PUBLIC "-//W3C//DTD SVG 1.1//EN" "http://www.w3.org/Graphics/SVG/1.1/DTD/svg11.dtd"><svg t="1778225576565" class="icon" viewBox="0 0 1170 1024" version="1.1" xmlns="http://www.w3.org/2000/svg" p-id="4392" xmlns:xlink="http://www.w3.org/1999/xlink" width="228.515625" height="200"><path d="M585.142857 1019.12381c-24.380952 0-46.32381-9.752381-63.390476-26.819048l-414.476191-419.352381C34.133333 499.809524 0 397.409524 14.628571 292.571429c14.628571-104.838095 73.142857-192.609524 165.790477-246.247619 126.780952-75.580952 295.009524-48.761905 404.723809 63.390476l2.438095 2.438095 2.438096-2.438095c109.714286-112.152381 275.504762-136.533333 404.723809-63.390476C1084.952381 99.961905 1145.904762 190.171429 1160.533333 292.571429c14.628571 104.838095-19.504762 207.238095-92.647619 280.380952l-414.47619 419.352381c-21.942857 19.504762-43.885714 26.819048-68.266667 26.819048z m-65.828571-463.238096L238.933333 275.504762l-14.628571 14.628571c-34.133333 34.133333-34.133333 90.209524 0 124.342857l219.428571 219.428572 75.580953-78.019048z" fill="#2c2c2c" p-id="4393"></path></svg>